<?xml version="1.0" standalone="no"?>
<!DOCTYPE svg PUBLIC "-//W3C//DTD SVG 20010904//EN"
 "http://www.w3.org/TR/2001/REC-SVG-20010904/DTD/svg10.dtd">
<svg version="1.0" xmlns="http://www.w3.org/2000/svg"
 width="700.000000pt" height="700.000000pt" viewBox="0 0 700.000000 700.000000"
 preserveAspectRatio="xMidYMid meet">
<metadata>
Created by potrace 1.11, written by Peter Selinger 2001-2013
</metadata>
<g transform="translate(0.000000,700.000000) scale(0.100000,-0.100000)"
fill="#000000" stroke="none">
<path d="M6583 6389 c-28 -9 -68 -28 -87 -41 -28 -19 -267 -223 -320 -273 -10
-9 -397 -342 -454 -390 -13 -11 -34 -29 -47 -40 -63 -56 -274 -236 -445 -378
-47 -39 -87 -74 -90 -77 -4 -5 -181 -153 -490 -410 -549 -456 -860 -718 -1249
-1053 -139 -120 -264 -222 -277 -227 -35 -14 -70 1 -199 87 -163 108 -238 157
-250 163 -5 3 -63 40 -128 83 -65 43 -202 133 -305 201 -103 67 -320 210 -482
318 -162 107 -309 202 -325 211 -122 62 -310 26 -387 -75 -50 -66 -62 -99 -62
-178 0 -41 2 -82 5 -90 20 -68 83 -138 499 -560 245 -249 483 -491 529 -538
46 -48 149 -155 230 -237 80 -83 170 -178 200 -210 203 -224 354 -386 424
-456 26 -26 54 -41 90 -50 49 -13 279 -18 340 -9 32 5 87 54 172 155 33 39 96
108 140 155 147 153 300 313 396 414 52 55 117 123 144 152 28 29 140 146 250
260 110 114 216 224 235 244 64 67 397 414 480 500 45 47 173 179 284 294 110
115 217 226 236 246 19 20 130 135 245 255 116 119 233 241 260 270 28 28 140
145 250 259 110 115 226 236 259 270 32 33 95 99 140 146 183 190 222 269 197
393 -19 97 -76 171 -160 209 -60 28 -179 31 -248 7z"/>
<path d="M2777 6364 c-1 -1 -51 -4 -112 -8 -119 -7 -145 -10 -275 -31 -283
-47 -558 -139 -825 -277 -65 -34 -287 -167 -295 -178 -3 -3 -21 -17 -40 -30
-168 -115 -434 -368 -579 -550 -211 -264 -378 -566 -490 -884 -32 -91 -86
-283 -96 -345 -3 -19 -8 -37 -10 -41 -5 -8 -34 -204 -43 -292 -9 -93 -8 -472
2 -563 52 -493 184 -912 393 -1253 60 -98 232 -345 252 -362 3 -3 30 -34 60
-70 88 -106 288 -301 400 -389 219 -174 405 -284 686 -407 84 -37 312 -109
410 -129 30 -7 117 -25 145 -30 14 -3 48 -8 75 -11 28 -4 53 -8 56 -10 12 -7
253 -19 374 -18 114 0 271 9 325 19 14 2 47 6 75 10 27 3 57 7 65 9 8 3 33 7
55 11 121 17 449 112 570 164 49 21 294 143 335 167 225 131 498 360 684 574
138 159 320 426 423 620 107 203 215 490 249 665 2 11 8 40 14 65 15 69 34
184 44 280 26 225 26 461 1 665 -4 32 -17 185 -19 224 -1 15 -10 27 -25 32
-24 10 -50 -11 -205 -163 l-78 -77 8 -113 c13 -185 8 -434 -10 -538 -3 -14 -7
-43 -10 -65 -29 -207 -109 -485 -201 -700 -203 -477 -576 -899 -1030 -1164
-122 -71 -113 -66 -180 -99 -194 -96 -451 -183 -645 -217 -66 -12 -75 -13
-130 -20 -30 -4 -66 -9 -80 -11 -14 -3 -104 -7 -200 -8 -155 -3 -327 8 -435
29 -189 36 -303 66 -426 110 -349 125 -661 320 -924 580 -67 66 -144 147 -171
181 -27 34 -60 74 -72 90 -33 40 -152 218 -187 278 -177 308 -309 715 -340
1051 -4 39 -9 84 -11 100 -5 41 -5 374 0 405 3 14 7 57 11 95 7 79 14 133 20
155 2 8 7 31 10 50 18 110 114 432 136 455 5 5 9 15 9 23 0 8 26 69 58 136
264 550 683 980 1196 1226 168 81 181 86 314 130 264 87 503 124 782 124 110
-1 268 -10 300 -19 8 -2 31 -6 50 -9 138 -20 195 -34 350 -80 296 -88 527
-212 900 -485 174 -128 250 -181 256 -181 17 0 159 132 176 163 17 32 1 61
-79 139 -446 438 -1038 719 -1653 783 -121 12 -385 25 -393 19z"/>
</g>
</svg>
