<?xml version="1.0" encoding="utf-8"?>
<!-- Generator: Adobe Illustrator 17.0.0, SVG Export Plug-In . SVG Version: 6.00 Build 0)  -->
<!DOCTYPE svg PUBLIC "-//W3C//DTD SVG 1.1//EN" "http://www.w3.org/Graphics/SVG/1.1/DTD/svg11.dtd">
<svg version="1.1" id="Layer_1" xmlns="http://www.w3.org/2000/svg" xmlns:xlink="http://www.w3.org/1999/xlink" x="0px" y="0px"
	 width="1882px" height="563px" viewBox="0 0 1882 563" enable-background="new 0 0 1882 563" xml:space="preserve">
<path fill="#fff" d="M754.435,365.384c-6.601,3.3-21.452,6.836-40.783,6.836c-54.926,0-83.215-34.183-83.215-79.444
	c0-54.218,38.661-84.392,86.751-84.392c18.623,0,32.768,3.771,39.133,7.071l-7.308,28.523c-7.308-3.063-17.444-5.891-30.175-5.891
	c-28.524,0-50.683,17.207-50.683,52.567c0,31.825,18.859,51.863,50.92,51.863c10.843,0,22.866-2.357,29.939-5.185L754.435,365.384z"
	/>
<path fill="#fff" d="M887.865,310.929c0,42.197-29.939,61.525-60.821,61.525c-33.711,0-59.641-22.158-59.641-59.405
	c0-37.245,24.516-61.054,61.527-61.054C864.291,251.995,887.865,276.275,887.865,310.929 M804.414,312.106
	c0,19.804,8.25,34.654,23.573,34.654c13.909,0,22.867-13.907,22.867-34.654c0-17.207-6.601-34.651-22.867-34.651
	C810.779,277.455,804.414,295.133,804.414,312.106"/>
<path fill="#fff" d="M911.679,291.362c0-14.379-0.472-26.638-0.943-36.774h31.117l1.649,15.793h0.707
	c4.716-7.308,16.502-18.387,35.596-18.387c23.575,0,41.255,15.559,41.255,49.504v68.365H985.23v-63.886
	c0-14.85-5.187-24.989-18.152-24.989c-9.901,0-15.795,6.836-18.151,13.438c-0.943,2.12-1.414,5.657-1.414,8.957v66.479h-35.833
	V291.362z"/>
<path fill="#fff" d="M1055.483,369.863v-88.875h-15.087v-26.4h15.087v-4.48c0-13.91,4.244-29.231,14.616-38.662
	c8.959-8.485,21.452-11.55,31.825-11.55c8.015,0,14.144,0.943,19.094,2.357l-1.414,27.58c-3.063-0.943-6.836-1.649-11.552-1.649
	c-11.786,0-16.736,9.194-16.736,20.51v5.894h23.102v26.4h-22.866v88.875H1055.483z"/>
<path fill="#fff" d="M1168.155,222.526c0,9.902-7.545,17.918-19.332,17.918c-11.314,0-18.858-8.016-18.623-17.918
	c-0.235-10.371,7.309-18.15,18.858-18.15C1160.61,204.376,1167.917,212.155,1168.155,222.526 M1131.143,254.588h35.832v115.275
	h-35.832V254.588z"/>
<path fill="#fff" d="M1309.125,202.49v132.954c0,12.968,0.472,26.641,0.943,34.419h-31.826l-1.65-16.973h-0.472
	c-7.308,12.965-21.215,19.564-36.066,19.564c-27.347,0-49.27-23.338-49.27-59.169c-0.236-38.896,24.045-61.291,51.626-61.291
	c14.145,0,25.224,4.951,30.41,12.965h0.472V202.49H1309.125z M1273.292,303.384c0-1.886-0.236-4.478-0.472-6.365
	c-2.121-9.665-9.9-17.679-20.98-17.679c-16.266,0-24.752,14.616-24.752,32.766c0,19.567,9.664,31.826,24.516,31.826
	c10.372,0,18.624-7.071,20.745-17.21c0.707-2.592,0.943-5.186,0.943-8.251V303.384z"/>
<path fill="#fff" d="M1367.119,323.659c1.178,14.85,15.793,21.923,32.531,21.923c12.259,0,22.158-1.65,31.825-4.716l4.714,24.28
	c-11.787,4.717-26.166,7.073-41.725,7.073c-39.133,0-61.528-22.632-61.528-58.697c0-29.232,18.151-61.528,58.227-61.528
	c37.247,0,51.392,28.994,51.392,57.52c0,6.128-0.708,11.55-1.18,14.145H1367.119z M1409.316,299.142
	c0-8.723-3.771-23.338-20.272-23.338c-15.088,0-21.218,13.672-22.162,23.338H1409.316z"/>
<path fill="#fff" d="M1463.415,291.362c0-14.379-0.472-26.638-0.942-36.774h31.117l1.65,15.793h0.708
	c4.715-7.308,16.502-18.387,35.595-18.387c23.574,0,41.256,15.559,41.256,49.504v68.365h-35.834v-63.886
	c0-14.85-5.185-24.989-18.15-24.989c-9.901,0-15.796,6.836-18.151,13.438c-0.943,2.12-1.415,5.657-1.415,8.957v66.479h-35.833
	V291.362z"/>
<path fill="#fff" d="M1685.241,367.034c-6.365,2.829-18.39,5.186-32.062,5.186c-37.246,0-61.056-22.632-61.056-58.935
	c0-33.71,23.104-61.291,66.006-61.291c9.43,0,19.802,1.651,27.345,4.479l-5.656,26.638c-4.242-1.886-10.607-3.536-20.038-3.536
	c-18.858,0-31.117,13.438-30.882,32.296c0,21.216,14.144,32.297,31.591,32.297c8.483,0,15.087-1.416,20.507-3.536L1685.241,367.034z
	"/>
<path fill="#fff" d="M1736.175,323.659c1.177,14.85,15.793,21.923,32.531,21.923c12.259,0,22.158-1.65,31.825-4.716l4.714,24.28
	c-11.787,4.717-26.166,7.073-41.726,7.073c-39.132,0-61.527-22.632-61.527-58.697c0-29.232,18.152-61.528,58.227-61.528
	c37.247,0,51.392,28.994,51.392,57.52c0,6.128-0.708,11.55-1.18,14.145H1736.175z M1778.371,299.142
	c0-8.723-3.771-23.338-20.272-23.338c-15.088,0-21.218,13.672-22.161,23.338H1778.371z"/>
<polygon fill="#fff" points="1809.727,233.434 1809.727,202.249 1798.078,202.249 1798.078,198.077 1826.104,198.077 
	1826.104,202.249 1814.406,202.249 1814.406,233.434 "/>
<path fill="#fff" d="M1832.191,233.434v-35.357h7.042l8.369,25.035c0.771,2.331,1.335,4.075,1.688,5.233
	c0.401-1.286,1.028-3.175,1.88-5.667l8.467-24.601h6.295v35.357h-4.51v-29.593l-10.274,29.593h-4.221l-10.227-30.1v30.1H1832.191z"
	/>
<path fill="#fff" d="M271.654,393.989c-19.108-19.383-36.767-40.186-55.708-59.742c-37.439-38.654-75.359-76.841-113.097-115.205
	c-9.727-9.889-10.744-26.508-2.179-36.711c9.762-11.629,27.162-13.693,40.646-4.762c21.487,14.233,42.891,28.591,64.437,42.733
	c26.24,17.223,52.663,34.168,78.835,51.495c5.33,3.528,8.823,2.986,13.648-1.212c27.284-23.742,54.768-47.258,82.451-70.533
	c33.441-28.117,67.34-55.689,100.691-83.912c40.209-34.027,80.284-68.222,119.877-102.962c9.169-8.044,18.873-10.303,29.916-8.691
	c18.618,2.717,28.272,26.698,16.241,42.106c-9.773,12.515-21.42,23.59-32.461,35.087
	c-58.506,60.923-117.116,121.747-175.624,182.667c-36.472,37.976-72.862,76.031-109.2,114.134
	c-5.404,5.666-9.635,12.657-15.66,17.464C308.967,400.332,277.175,399.591,271.654,393.989"/>
<path fill="#fff" d="M442.17,110.92c-24.66-16.838-46.021-35.025-70.339-47.402C268.17,10.757,143.537,44.332,77.6,141.027
	c-31.646,46.408-46.137,97.976-42.808,153.673c6.724,112.537,85.51,204.156,193.627,224.308
	c110.686,20.63,223.727-46.347,260.489-153.053c12.327-35.78,18.299-72.213,13.64-110.06c-0.296-2.407-0.003-5.843,1.485-7.352
	c7.195-7.301,14.892-14.105,22.411-21.086l4.273,1.2c1.42,19.379,4.509,38.809,3.923,58.127
	c-1.339,44.185-11.199,86.634-33.145,125.451c-42.577,75.309-105.446,124.204-191.537,137.615
	C200.281,566.937,99.605,517.802,40.774,419.212c-21.387-35.84-31.818-74.947-35.637-116.655
	C-5.808,183.006,63.552,77.858,157.802,33.165c41.875-19.858,85.975-27.9,132.72-23.897c61.811,5.293,114.363,29.473,159.085,71.776
	c12.724,12.035,12.664,12.134,0.012,23.539C446.612,107.293,443.453,109.833,442.17,110.92"/>
<rect fill="none" width="1920" height="1080"/>
<g>
	<path fill="#fff" d="M667.975,468.365v-8.688l31.365-0.05v27.476c-4.815,3.839-9.782,6.727-14.899,8.662
		c-5.119,1.936-10.372,2.904-15.759,2.904c-7.273,0-13.881-1.557-19.824-4.672c-5.943-3.114-10.43-7.618-13.46-13.511
		c-3.031-5.893-4.546-12.476-4.546-19.749c0-7.205,1.506-13.931,4.521-20.178c3.013-6.245,7.349-10.884,13.006-13.915
		c5.657-3.03,12.172-4.545,19.546-4.545c5.354,0,10.194,0.867,14.521,2.601c4.326,1.734,7.719,4.15,10.177,7.248
		c2.458,3.099,4.326,7.139,5.606,12.122l-8.839,2.424c-1.111-3.771-2.492-6.733-4.142-8.889c-1.65-2.155-4.008-3.881-7.071-5.178
		c-3.064-1.296-6.465-1.944-10.203-1.944c-4.479,0-8.351,0.682-11.617,2.046c-3.267,1.363-5.901,3.156-7.904,5.379
		c-2.004,2.223-3.561,4.664-4.672,7.323c-1.886,4.58-2.829,9.546-2.829,14.9c0,6.6,1.136,12.122,3.409,16.566
		s5.581,7.745,9.925,9.899c4.344,2.155,8.957,3.232,13.839,3.232c4.243,0,8.384-0.816,12.425-2.449
		c4.041-1.633,7.104-3.376,9.192-5.228v-13.789H667.975z"/>
	<path fill="#fff" d="M752.136,480.134l9.395,1.161c-1.482,5.489-4.226,9.748-8.233,12.778
		c-4.007,3.031-9.125,4.546-15.354,4.546c-7.846,0-14.066-2.415-18.662-7.248c-4.597-4.831-6.895-11.607-6.895-20.329
		c0-9.023,2.323-16.027,6.97-21.011c4.646-4.983,10.673-7.476,18.082-7.476c7.172,0,13.031,2.442,17.577,7.324
		c4.546,4.882,6.819,11.751,6.819,20.606c0,0.539-0.018,1.348-0.051,2.425h-40.002c0.336,5.893,2.003,10.404,5,13.536
		c2.997,3.131,6.734,4.697,11.213,4.697c3.333,0,6.179-0.875,8.536-2.627C748.886,486.768,750.755,483.973,752.136,480.134z
		 M722.286,465.436h29.951c-0.404-4.512-1.549-7.896-3.435-10.151c-2.896-3.502-6.65-5.253-11.263-5.253
		c-4.176,0-7.686,1.397-10.531,4.192C724.163,457.019,722.589,460.756,722.286,465.436z"/>
	<path fill="#fff" d="M795.588,489.275l1.313,8.031c-2.56,0.538-4.849,0.808-6.869,0.808c-3.3,0-5.859-0.522-7.677-1.565
		c-1.818-1.044-3.098-2.416-3.838-4.116c-0.741-1.7-1.111-5.278-1.111-10.733v-30.86h-6.667v-7.071h6.667v-13.283l9.041-5.455
		v18.738h9.142v7.071h-9.142v31.365c0,2.594,0.159,4.261,0.479,5.001c0.32,0.74,0.841,1.33,1.566,1.768
		c0.724,0.438,1.759,0.656,3.106,0.656C792.608,489.629,793.938,489.512,795.588,489.275z"/>
	<path fill="#fff" d="M848.701,497.407l-16.415-53.64h9.394l8.536,30.962l3.182,11.516c0.134-0.572,1.061-4.26,2.778-11.062
		l8.536-31.416h9.344l8.031,31.113l2.677,10.253l3.081-10.354l9.192-31.012h8.839l-16.769,53.64h-9.445l-8.536-32.123l-2.071-9.142
		l-10.859,41.265H848.701z"/>
	<path fill="#fff" d="M912.911,470.588c0-9.933,2.761-17.29,8.283-22.072c4.612-3.973,10.235-5.96,16.869-5.96
		c7.375,0,13.401,2.417,18.082,7.248c4.68,4.832,7.021,11.508,7.021,20.026c0,6.903-1.035,12.332-3.106,16.289
		c-2.07,3.957-5.084,7.029-9.04,9.217c-3.957,2.188-8.275,3.283-12.956,3.283c-7.509,0-13.578-2.406-18.208-7.223
		C915.226,486.582,912.911,479.646,912.911,470.588z M922.255,470.588c0,6.869,1.498,12.013,4.495,15.43
		c2.997,3.418,6.769,5.127,11.313,5.127c4.512,0,8.267-1.718,11.264-5.152c2.996-3.435,4.495-8.67,4.495-15.708
		c0-6.633-1.507-11.658-4.521-15.076c-3.014-3.417-6.76-5.127-11.238-5.127c-4.545,0-8.316,1.701-11.313,5.102
		C923.753,458.584,922.255,463.719,922.255,470.588z"/>
	<path fill="#fff" d="M976.515,497.407v-53.64h8.182v8.132c2.088-3.805,4.016-6.313,5.783-7.525s3.713-1.818,5.834-1.818
		c3.063,0,6.179,0.978,9.344,2.93l-3.132,8.435c-2.222-1.313-4.444-1.97-6.667-1.97c-1.986,0-3.771,0.599-5.354,1.793
		c-1.583,1.195-2.711,2.854-3.384,4.976c-1.01,3.232-1.516,6.768-1.516,10.606v28.082H976.515z"/>
	<path fill="#fff" d="M1013.905,497.407v-74.044h9.091v42.224l21.517-21.819h11.769l-20.506,19.9l22.576,33.739h-11.212
		l-17.729-27.426l-6.415,6.162v21.264H1013.905z"/>
	<path fill="#fff" d="M1134.699,497.407v-6.768c-3.401,5.32-8.401,7.979-15.001,7.979c-4.276,0-8.207-1.179-11.793-3.535
		s-6.364-5.648-8.334-9.874s-2.955-9.083-2.955-14.572c0-5.354,0.893-10.21,2.678-14.571c1.784-4.36,4.461-7.702,8.03-10.025
		c3.568-2.323,7.559-3.485,11.971-3.485c3.232,0,6.111,0.682,8.637,2.046c2.525,1.363,4.578,3.14,6.162,5.328v-26.566h9.04v74.044
		H1134.699z M1105.961,470.638c0,6.869,1.447,12.005,4.343,15.405c2.896,3.401,6.313,5.102,10.254,5.102
		c3.973,0,7.349-1.624,10.126-4.874c2.778-3.249,4.167-8.208,4.167-14.875c0-7.34-1.414-12.728-4.242-16.162
		s-6.313-5.152-10.455-5.152c-4.041,0-7.417,1.65-10.127,4.95C1107.315,458.332,1105.961,463.534,1105.961,470.638z"/>
	<path fill="#fff" d="M1156.837,470.588c0-9.933,2.761-17.29,8.283-22.072c4.612-3.973,10.235-5.96,16.869-5.96
		c7.375,0,13.401,2.417,18.082,7.248c4.68,4.832,7.021,11.508,7.021,20.026c0,6.903-1.035,12.332-3.106,16.289
		c-2.07,3.957-5.084,7.029-9.04,9.217c-3.957,2.188-8.275,3.283-12.956,3.283c-7.509,0-13.578-2.406-18.208-7.223
		C1159.151,486.582,1156.837,479.646,1156.837,470.588z M1166.181,470.588c0,6.869,1.498,12.013,4.495,15.43
		c2.997,3.418,6.769,5.127,11.313,5.127c4.512,0,8.267-1.718,11.264-5.152c2.996-3.435,4.495-8.67,4.495-15.708
		c0-6.633-1.507-11.658-4.521-15.076c-3.014-3.417-6.76-5.127-11.238-5.127c-4.545,0-8.316,1.701-11.313,5.102
		C1167.679,458.584,1166.181,463.719,1166.181,470.588z"/>
	<path fill="#fff" d="M1220.542,497.407v-53.64h8.183v7.627c3.939-5.892,9.63-8.839,17.071-8.839
		c3.232,0,6.204,0.581,8.915,1.743c2.71,1.161,4.738,2.686,6.086,4.57c1.347,1.887,2.289,4.125,2.828,6.718
		c0.336,1.684,0.505,4.63,0.505,8.839v32.981h-9.091v-32.628c0-3.704-0.354-6.473-1.061-8.309c-0.707-1.835-1.962-3.3-3.763-4.395
		c-1.802-1.094-3.915-1.641-6.339-1.641c-3.873,0-7.215,1.229-10.026,3.687c-2.812,2.458-4.217,7.122-4.217,13.99v29.295H1220.542z"
		/>
	<path fill="#fff" d="M1317.583,480.134l9.394,1.161c-1.481,5.489-4.226,9.748-8.232,12.778
		c-4.008,3.031-9.125,4.546-15.354,4.546c-7.846,0-14.066-2.415-18.662-7.248c-4.597-4.831-6.895-11.607-6.895-20.329
		c0-9.023,2.323-16.027,6.97-21.011c4.647-4.983,10.674-7.476,18.082-7.476c7.172,0,13.031,2.442,17.577,7.324
		c4.545,4.882,6.818,11.751,6.818,20.606c0,0.539-0.018,1.348-0.051,2.425h-40.002c0.336,5.893,2.003,10.404,5,13.536
		c2.997,3.131,6.734,4.697,11.213,4.697c3.333,0,6.179-0.875,8.536-2.627C1314.333,486.768,1316.201,483.973,1317.583,480.134z
		 M1287.732,465.436h29.951c-0.404-4.512-1.549-7.896-3.435-10.151c-2.896-3.502-6.65-5.253-11.264-5.253
		c-4.175,0-7.686,1.397-10.53,4.192C1289.609,457.019,1288.035,460.756,1287.732,465.436z"/>
	<path fill="#fff" d="M1372.616,497.407v-53.64h8.182v8.132c2.088-3.805,4.016-6.313,5.783-7.525s3.713-1.818,5.834-1.818
		c3.063,0,6.179,0.978,9.344,2.93l-3.132,8.435c-2.222-1.313-4.444-1.97-6.667-1.97c-1.986,0-3.771,0.599-5.354,1.793
		c-1.583,1.195-2.711,2.854-3.384,4.976c-1.01,3.232-1.516,6.768-1.516,10.606v28.082H1372.616z"/>
	<path fill="#fff" d="M1410.006,433.818v-10.455h9.091v10.455H1410.006z M1410.006,497.407v-53.64h9.091v53.64H1410.006z"/>
	<path fill="#fff" d="M1434.063,501.852l8.839,1.313c0.37,2.728,1.397,4.714,3.081,5.96c2.256,1.684,5.337,2.525,9.243,2.525
		c4.209,0,7.458-0.842,9.748-2.525c2.289-1.685,3.839-4.041,4.646-7.071c0.472-1.852,0.69-5.74,0.657-11.667
		c-3.974,4.681-8.924,7.021-14.85,7.021c-7.374,0-13.082-2.659-17.122-7.98c-4.041-5.319-6.061-11.7-6.061-19.143
		c0-5.117,0.925-9.84,2.777-14.167c1.852-4.326,4.537-7.669,8.056-10.025s7.652-3.536,12.4-3.536c6.33,0,11.549,2.56,15.657,7.678
		v-6.466h8.384v46.366c0,8.351-0.851,14.269-2.551,17.754s-4.394,6.237-8.081,8.258c-3.687,2.021-8.225,3.03-13.611,3.03
		c-6.398,0-11.566-1.439-15.506-4.318S1433.928,507.643,1434.063,501.852z M1441.589,469.628c0,7.038,1.396,12.173,4.191,15.405
		s6.297,4.849,10.506,4.849c4.175,0,7.678-1.607,10.506-4.824c2.828-3.215,4.242-8.258,4.242-15.127
		c0-6.565-1.456-11.516-4.368-14.849c-2.913-3.334-6.424-5.001-10.531-5.001c-4.041,0-7.476,1.642-10.304,4.925
		S1441.589,463.163,1441.589,469.628z"/>
	<path fill="#fff" d="M1496.051,497.407v-74.044h9.092v26.566c4.242-4.915,9.597-7.374,16.062-7.374
		c3.973,0,7.425,0.783,10.354,2.349c2.93,1.566,5.025,3.729,6.288,6.49c1.263,2.762,1.895,6.769,1.895,12.021v33.991h-9.092v-33.991
		c0-4.546-0.984-7.854-2.954-9.925c-1.97-2.071-4.757-3.106-8.359-3.106c-2.694,0-5.228,0.699-7.602,2.096
		c-2.374,1.397-4.065,3.292-5.076,5.683c-1.01,2.391-1.515,5.69-1.515,9.899v29.345H1496.051z"/>
	<path fill="#fff" d="M1576.222,489.275l1.313,8.031c-2.56,0.538-4.849,0.808-6.869,0.808c-3.301,0-5.859-0.522-7.678-1.565
		c-1.817-1.044-3.098-2.416-3.838-4.116c-0.741-1.7-1.111-5.278-1.111-10.733v-30.86h-6.667v-7.071h6.667v-13.283l9.041-5.455
		v18.738h9.142v7.071h-9.142v31.365c0,2.594,0.159,4.261,0.479,5.001c0.319,0.74,0.842,1.33,1.565,1.768
		c0.725,0.438,1.76,0.656,3.106,0.656C1573.242,489.629,1574.571,489.512,1576.222,489.275z"/>
</g>
</svg>
