<svg xmlns="http://www.w3.org/2000/svg" xmlns:xlink="http://www.w3.org/1999/xlink" width="100" height="100" viewBox="0 0 100 100"><rect width="100%" height="100%" fill="#2ccf4b"></rect><g transform="translate(50 50) scale(0.69 0.69) rotate(0) translate(-50 -50)" style="fill:#ffffff"><svg fill="#ffffff" xmlns:x="http://ns.adobe.com/Extensibility/1.0/" xmlns:i="http://ns.adobe.com/AdobeIllustrator/10.0/" xmlns:graph="http://ns.adobe.com/Graphs/1.0/" xmlns="http://www.w3.org/2000/svg" xmlns:xlink="http://www.w3.org/1999/xlink" version="1.1" x="0px" y="0px" viewBox="0 0 100 100" style="enable-background:new 0 0 100 100;" xml:space="preserve"><g><g i:extraneous="self"><g><path d="M5273.1,2400.1v-2c0-2.8-5-4-9.7-4s-9.7,1.3-9.7,4v2c0,1.8,0.7,3.6,2,4.9l5,4.9c0.3,0.3,0.4,0.6,0.4,1v6.4     c0,0.4,0.2,0.7,0.6,0.8l2.9,0.9c0.5,0.1,1-0.2,1-0.8v-7.2c0-0.4,0.2-0.7,0.4-1l5.1-5C5272.4,2403.7,5273.1,2401.9,5273.1,2400.1z      M5263.4,2400c-4.8,0-7.4-1.3-7.5-1.8v0c0.1-0.5,2.7-1.8,7.5-1.8c4.8,0,7.3,1.3,7.5,1.8C5270.7,2398.7,5268.2,2400,5263.4,2400z"></path><path d="M5268.4,2410.3c-0.6,0-1,0.4-1,1c0,0.6,0.4,1,1,1h4.3c0.6,0,1-0.4,1-1c0-0.6-0.4-1-1-1H5268.4z"></path><path d="M5272.7,2413.7h-4.3c-0.6,0-1,0.4-1,1c0,0.6,0.4,1,1,1h4.3c0.6,0,1-0.4,1-1C5273.7,2414.1,5273.3,2413.7,5272.7,2413.7z"></path><path d="M5272.7,2417h-4.3c-0.6,0-1,0.4-1,1c0,0.6,0.4,1,1,1h4.3c0.6,0,1-0.4,1-1C5273.7,2417.5,5273.3,2417,5272.7,2417z"></path></g><g><path d="M32.2,62c0.5-0.1,0.9-0.6,0.9-1.1c0-0.5-0.4-1-0.9-1.1c-5.6-1.2-9.9-5.5-11.1-11.1c-0.1-0.5-0.6-0.9-1.1-0.9     s-1,0.4-1.1,0.9c-1.2,5.6-5.5,10-11.1,11.1c-0.5,0.1-0.9,0.6-0.9,1.1c0,0.5,0.4,1,0.9,1.1c5.6,1.2,9.9,5.5,11.1,11.1     C19,73.6,19.4,74,20,74s1-0.4,1.1-0.9C22.2,67.5,26.6,63.1,32.2,62C32.2,62,32.2,62,32.2,62z"></path><path d="M28.1,46.1c0,0.5,0.3,1,0.8,1.1c3.4,0.8,6.2,3.6,7,7c0.1,0.5,0.6,0.8,1.1,0.8c0.5,0,1-0.3,1.1-0.8c0.8-3.4,3.6-6.2,7-7     c0.5-0.1,0.8-0.6,0.8-1.1c0-0.5-0.3-1-0.8-1.1c-3.5-0.8-6.2-3.5-7-7c-0.1-0.5-0.6-0.8-1.1-0.8c-0.5,0-1,0.3-1.1,0.8     c-0.8,3.5-3.5,6.2-7,7C28.4,45.2,28.1,45.6,28.1,46.1z"></path><path d="M14.7,33c3.4,0.8,6.2,3.6,7,7c0.1,0.5,0.6,0.8,1.1,0.8c0,0,0,0,0,0c0.5,0,1-0.3,1.1-0.8c0.8-3.4,3.6-6.2,7-7c0,0,0,0,0,0     c0.5-0.1,0.8-0.6,0.8-1.1c0-0.5-0.3-1-0.8-1.1c-3.5-0.8-6.2-3.5-7-7c-0.1-0.5-0.6-0.8-1.1-0.8c0,0,0,0,0,0c-0.5,0-1,0.3-1.1,0.8     c-0.8,3.5-3.5,6.2-7,7c-0.5,0.1-0.8,0.6-0.8,1.1C13.8,32.4,14.2,32.9,14.7,33z"></path><path d="M76,55.8l-15.7-7.3c-0.9-0.4-2.1-0.2-2.7,0.6L57,49.9c-7.5,9.4-16.6,17.2-27.2,22.9c-0.6,0.3-1.1,1-1.2,1.7     c-0.1,0.7,0.2,1.4,0.7,1.9c1.7,1.7,3.5,3.2,5.4,4.7c7.3-4.1,13.9-9.3,19.4-15.6l0.5-0.6c0.9-1,2.4-1.1,3.4-0.2     c1,0.9,1.1,2.4,0.2,3.4l-0.5,0.6C52.3,74.9,46,80.1,39,84.3c10.6,7.3,22.9,11.9,35.7,13.2c0.1,0,0.2,0,0.2,0     c0.6,0,1.2-0.3,1.7-0.7c0.5-0.5,0.7-1.3,0.5-2C74.7,83,74.7,71,77.1,59.2l0.2-0.9C77.4,57.2,76.9,56.2,76,55.8z"></path><path d="M91,2.8c-1.9-0.9-4.1-0.1-4.9,1.8l-16,34.5L65.5,37c-1.1-0.5-2.5,0-3,1.1l-1.8,3.9c-0.3,0.5-0.3,1.2-0.1,1.7     c0.2,0.6,0.6,1,1.2,1.3l15.9,7.4c0.3,0.1,0.6,0.2,0.9,0.2c0.3,0,0.5,0,0.8-0.1c0.6-0.2,1-0.6,1.3-1.2l1.8-3.9     c0.5-1.1,0-2.5-1.1-3l-4.6-2.1l16-34.5C93.7,5.9,92.8,3.7,91,2.8z"></path></g></g></g></svg></g></svg>