<svg xmlns="http://www.w3.org/2000/svg" xmlns:xlink="http://www.w3.org/1999/xlink" width="100" height="100" viewBox="0 0 100 100"><rect width="100%" height="100%" fill="#ffab00"></rect><g transform="translate(50 50) scale(0.69 0.69) rotate(0) translate(-50 -50)" style="fill:#ffffff"><svg fill="#ffffff" xmlns="http://www.w3.org/2000/svg" xmlns:xlink="http://www.w3.org/1999/xlink" version="1.1" x="0px" y="0px" viewBox="0 0 68 68" enable-background="new 0 0 68 68" xml:space="preserve"><g><rect x="2" y="30.9" width="9.4" height="15.7"></rect><path d="M49.9,30.9v15.7h-5.7l-1.7-2.7c-0.2-0.3,0-0.8,0.4-0.8h0.5c0.4,0,0.6-0.4,0.4-0.8l-3.3-5.1l0.8,3.8c0,0.3-0.2,0.6-0.5,0.6   h-0.9c-0.3,0-0.6,0.3-0.5,0.6l1.1,4.4H18.1V30.9h10.2v1.4c0,0.8,0.4,1.5,1.1,1.8c1.5,0.7,3,1.1,4.6,1.1c1.5,0,3.1-0.4,4.6-1.1   c0.7-0.3,1.1-1,1.1-1.8v-1.4H49.9z"></path><rect x="56.6" y="30.9" width="9.4" height="15.7"></rect><path d="M55.6,29.9v17.7c0,1.2-0.8,2.2-1.8,2.2h-1c-1,0-1.8-1-1.8-2.2V29.9c0-1.2,0.8-2.2,1.8-2.2h1C54.8,27.7,55.6,28.7,55.6,29.9   z"></path><path d="M17.1,29.9v17.7c0,1.2-0.8,2.2-1.8,2.2h-1c-1,0-1.8-1-1.8-2.2V29.9c0-1.2,0.8-2.2,1.8-2.2h1C16.2,27.7,17.1,28.7,17.1,29.9   z"></path><path d="M38.7,24v8.3c0,0.4-0.2,0.8-0.6,0.9c-2.8,1.3-5.5,1.3-8.3,0c-0.3-0.2-0.6-0.5-0.6-0.9V24H38.7z"></path><path d="M41.1,21.1v1c0,0.6-0.5,1-1,1H28c-0.6,0-1-0.5-1-1v-1c0-0.6,0.5-1,1-1H40C40.6,20.1,41.1,20.5,41.1,21.1z"></path><path d="M38.4,16.7V19h-8.8v-2.3c0-0.6,0.5-1,1-1h6.8C38,15.7,38.4,16.2,38.4,16.7z"></path><path d="M35.5,4.7v0.6c0,0,0,0,0,0c-0.5,0-1,0-1.5,0s-1,0-1.5,0c0,0,0,0,0,0V4.7c0-0.9,0.7-1.5,1.6-1.5C34.9,3.1,35.5,3.8,35.5,4.7   z"></path><path d="M35.5,10.5v4.2h-3.1v-4.2h0c0.5,0,1,0,1.5,0C34.5,10.4,35,10.4,35.5,10.5L35.5,10.5z"></path><path d="M44.8,5.5v4.6c-3.1-0.4-6.2-0.6-9.3-0.7c-1,0-2.1,0-3.1,0c-3.1,0-6.2,0.3-9.2,0.7V5.5c3.1,0.4,6.2,0.7,9.2,0.8   c1,0,2.1,0,3.1,0C38.6,6.3,41.7,6,44.8,5.5z"></path><path d="M36.6,50.7c0.3,0.6,2,3.7,2,4.8c0,1.3-1.1,2.4-2.4,2.4c-1.3,0-2.4-1.1-2.4-2.4c0-1.1,1.7-4.2,2-4.8   c0.1-0.2,0.3-0.3,0.4-0.3C36.3,50.4,36.5,50.5,36.6,50.7z"></path><path d="M42.5,57.6c0.3,0.6,2,3.7,2,4.8c0,1.3-1.1,2.4-2.4,2.4c-1.4,0-2.4-1.1-2.4-2.4c0-1.1,1.7-4.2,2-4.8   c0.1-0.2,0.3-0.3,0.4-0.3C42.2,57.3,42.4,57.5,42.5,57.6z"></path><path d="M50.4,55.6c0,1.3-1.1,2.4-2.4,2.4c-1.3,0-2.4-1.1-2.4-2.4c0-1.1,1.7-4.2,2-4.8c0.1-0.2,0.3-0.3,0.4-0.3h0   c0.2,0,0.4,0.1,0.4,0.3C48.8,51.3,50.4,54.4,50.4,55.6z"></path></g></svg></g></svg>