<svg xmlns="http://www.w3.org/2000/svg" xmlns:xlink="http://www.w3.org/1999/xlink" width="100" height="100" viewBox="0 0 100 100"><rect width="100%" height="100%" fill="#0080FF"></rect><g transform="translate(50 50) scale(0.69 0.69) rotate(0) translate(-50 -50)" style="fill:#ffffff"><svg fill="#ffffff" xmlns="http://www.w3.org/2000/svg" xmlns:xlink="http://www.w3.org/1999/xlink" version="1.1" x="0px" y="0px" viewBox="0 0 70 70" enable-background="new 0 0 70 70" xml:space="preserve"><g><path fill="#ffffff" d="M52.978,39.651c-0.803,9.215-8.539,16.438-17.962,16.438c-9.417,0-17.153-7.224-17.956-16.438H4.189   c0.151,1.639,0.683,2.89,3.2,3.408c4.199,0.857,7.147,7.772,5.048,11.178c-1.291,2.099-1.538,3.686,0.394,5.54   c1.896,1.819,3.539,3.454,6.221,1.243c0.758-0.624,1.923-0.75,2.556-0.983c3.286,0.022,8.166,3.006,8.728,5.287   c0.555,2.289,1.432,3.763,4.185,3.651c2.563-0.112,4.598,0.014,5.385-3.391c0.99-4.242,7.682-6.994,11.221-4.866   c2.366,1.424,3.995,1.094,5.813-0.836c1.686-1.797,2.521-3.181,0.92-5.716c-2.409-3.819,0.028-9.97,4.374-11.051   c2.35-0.59,3.277-1.649,3.579-3.464H52.978z"></path><g><g><path fill="#ffffff" d="M68.267,36.192v1.317H1.733v-1.317c0-0.102,0.006-0.204,0.016-0.303c0.153-1.7,1.581-3.031,3.321-3.031     h0.149c0.268-0.642,0.425-1.366,0.517-2.199c0.64-5.835,2.788-10.931,6.315-15.271c0,0,0.006-0.008,0.02-0.023     c0.243-0.276,2.687-3.011,6.225-5.616c0.002-0.002,0.006-0.004,0.01-0.006c0.141-0.104,0.286-0.205,0.429-0.309l0.004,0.006     c0.567,1.505,2.871,9.406,4.399,14.803l0.061,0.184c0.685,1.761,2.902,4.804,6.886,5.035l9.78,0.002l0.059-0.002     c3.984-0.231,6.201-3.274,6.886-5.035l0.061-0.184c1.528-5.397,3.831-13.298,4.399-14.803l0.014-0.018     c0.487,0.346,0.957,0.699,1.403,1.049c1.957,1.532,3.501,3.029,4.403,3.961c0.575,0.593,0.892,0.957,0.892,0.957l-0.041,0.047     c3.413,4.211,5.53,9.152,6.234,14.813c0.127,1.016,0.35,1.873,0.751,2.61h0.01c1.205,0,2.26,0.638,2.845,1.595     C68.087,34.959,68.267,35.556,68.267,36.192z"></path><path fill="#ffffff" d="M24.868,10.659c1,3.415,1.982,8.044,2.184,8.749c0.182,0.395,1.135,2.213,3.213,2.362h9.471     c2.078-0.149,3.031-1.967,3.213-2.362c0.202-0.704,1.184-5.334,2.184-8.749c0.472-1.617,0.882-2.996,1.225-4.123     c-0.357-0.162-0.719-0.315-1.084-0.458c-0.401-0.254-0.91-0.444-1.54-0.571c-0.027-0.006-0.057-0.012-0.084-0.018     c-0.26-0.078-0.544-0.145-0.847-0.198c-0.115-0.022-0.231-0.043-0.346-0.063c-1.34-0.354-2.499-1-2.524-3.006     c-0.006-0.382-1.108-1.029-1.736-1.072c-0.182-0.014-0.364-0.025-0.548-0.035c-0.055-0.012-0.11-0.018-0.162-0.022     c-2.057-0.135-4.141-0.076-6.197,0.096c-0.628,0.053-1.722,0.718-1.722,1.1c0.004,2.137-1.301,2.749-2.747,3.111     c-0.004,0.002-0.01,0.002-0.014,0.002c-0.022,0.006-0.043,0.008-0.065,0.014c-0.207,0.039-0.405,0.084-0.593,0.137     c-0.002,0-0.004,0.002-0.006,0.002c-0.11,0.023-0.219,0.045-0.329,0.07c-0.724,0.157-1.284,0.393-1.704,0.714h-0.002     c-0.155,0.066-0.308,0.138-0.461,0.208C23.988,7.673,24.397,9.049,24.868,10.659z"></path></g></g></g></svg></g></svg>