<svg xmlns="http://www.w3.org/2000/svg" xmlns:xlink="http://www.w3.org/1999/xlink" width="100" height="100" viewBox="0 0 100 100"><rect width="100%" height="100%" fill="#A400FF"></rect><g transform="translate(50 50) scale(0.69 0.69) rotate(0) translate(-50 -50)" style="fill:#ffffff"><svg fill="#ffffff" xmlns="http://www.w3.org/2000/svg" xmlns:xlink="http://www.w3.org/1999/xlink" version="1.1" x="0px" y="0px" viewBox="0 0 100 100" style="enable-background:new 0 0 100 100;" xml:space="preserve"><g><path d="M98.964,47.335L51.432,13.471c-0.046-0.032-0.093-0.062-0.141-0.091v-4.21c4.074-2.222,8.146,2.665,12.22,0.145   c0-2.856,0-5.714,0-8.571c-4.073,2.52-8.146-2.366-12.22-0.145V0.465C51.291,0.208,51.084,0,50.827,0h-1.653   c-0.257,0-0.465,0.208-0.465,0.465v12.915c-0.047,0.029-0.094,0.059-0.14,0.091L1.036,47.335c-0.874,0.622-1.245,1.738-0.918,2.761   c0.327,1.021,1.276,1.715,2.35,1.715h4.667v40.477H6.859c-1.127,0-2.04,0.914-2.04,2.041v2.585c0,1.127,0.913,2.04,2.04,2.04   h21.299v-2.416c0-1.318,1.073-2.391,2.391-2.391h0.734v-2.686c0-1.317,1.072-2.39,2.391-2.39h1.341v-2.407   c0-1.229,0.999-2.229,2.228-2.229h2.029V62.761c0-1.136,0.92-2.056,2.056-2.056h17.344c1.136,0,2.057,0.92,2.057,2.056v21.675   h2.029c1.229,0,2.227,1,2.227,2.229v2.407h1.342c1.318,0,2.391,1.072,2.391,2.39v2.686h0.734c1.318,0,2.391,1.072,2.391,2.391   v2.416h21.299c1.127,0,2.04-0.913,2.04-2.04v-2.585c0-1.127-0.913-2.041-2.04-2.041h-0.274V51.811h4.667   c1.072,0,2.022-0.693,2.35-1.715C100.209,49.073,99.838,47.957,98.964,47.335z M22.022,78.973c0,0.745-0.604,1.35-1.349,1.35   h-4.524c-0.745,0-1.349-0.604-1.349-1.35V74.57c0-0.745,0.604-1.349,1.349-1.349h4.524c0.745,0,1.349,0.604,1.349,1.349V78.973z    M22.022,67.344c0,0.744-0.604,1.349-1.349,1.349h-4.524c-0.745,0-1.349-0.604-1.349-1.349v-4.402c0-0.745,0.604-1.35,1.349-1.35   h4.524c0.745,0,1.349,0.604,1.349,1.35V67.344z M34.264,78.973c0,0.745-0.604,1.35-1.349,1.35h-4.525   c-0.745,0-1.349-0.604-1.349-1.35V74.57c0-0.745,0.604-1.349,1.349-1.349h4.525c0.745,0,1.349,0.604,1.349,1.349V78.973z    M34.264,67.344c0,0.744-0.604,1.349-1.349,1.349h-4.525c-0.745,0-1.349-0.604-1.349-1.349v-4.402c0-0.745,0.604-1.35,1.349-1.35   h4.525c0.745,0,1.349,0.604,1.349,1.35V67.344z M50,51.378c-6.378,0-11.549-5.171-11.549-11.549S43.622,28.279,50,28.279   c6.379,0,11.549,5.171,11.549,11.549S56.379,51.378,50,51.378z M72.958,78.973c0,0.745-0.604,1.35-1.349,1.35h-4.525   c-0.744,0-1.348-0.604-1.348-1.35V74.57c0-0.745,0.604-1.349,1.348-1.349h4.525c0.745,0,1.349,0.604,1.349,1.349V78.973z    M72.958,67.344c0,0.744-0.604,1.349-1.349,1.349h-4.525c-0.744,0-1.348-0.604-1.348-1.349v-4.402c0-0.745,0.604-1.35,1.348-1.35   h4.525c0.745,0,1.349,0.604,1.349,1.35V67.344z M85.199,78.973c0,0.745-0.604,1.35-1.349,1.35h-4.524   c-0.745,0-1.349-0.604-1.349-1.35V74.57c0-0.745,0.604-1.349,1.349-1.349h4.524c0.745,0,1.349,0.604,1.349,1.349V78.973z    M85.199,67.344c0,0.744-0.604,1.349-1.349,1.349h-4.524c-0.745,0-1.349-0.604-1.349-1.349v-4.402c0-0.745,0.604-1.35,1.349-1.35   h4.524c0.745,0,1.349,0.604,1.349,1.35V67.344z M57.617,39.053c0.764,0,1.383,0.62,1.383,1.383c0,0.764-0.619,1.384-1.383,1.384   H49.87c-0.048,0-0.095-0.003-0.142-0.008c-0.698-0.07-1.242-0.66-1.242-1.376v-7.747c0-0.764,0.619-1.383,1.383-1.383   s1.384,0.619,1.384,1.383v6.364H57.617z M37.243,86.081h25.515c0.321,0,0.582,0.261,0.582,0.583v2.407H36.66v-2.407   C36.66,86.342,36.921,86.081,37.243,86.081z M33.674,90.716h32.652c0.412,0,0.746,0.334,0.746,0.745v2.686H32.928v-2.686   C32.928,91.05,33.262,90.716,33.674,90.716z M70.197,96.537v2.717c0,0.412-0.334,0.746-0.746,0.746H30.549   c-0.412,0-0.746-0.334-0.746-0.746v-2.717c0-0.412,0.334-0.746,0.746-0.746h38.902C69.863,95.791,70.197,96.125,70.197,96.537z    M46.812,76.197c-0.929,0-1.682-0.753-1.682-1.682c0-0.928,0.753-1.681,1.682-1.681c0.928,0,1.681,0.753,1.681,1.681   C48.493,75.444,47.74,76.197,46.812,76.197z M53.18,76.197c-0.929,0-1.682-0.753-1.682-1.682c0-0.928,0.753-1.681,1.682-1.681   c0.928,0,1.682,0.753,1.682,1.681C54.861,75.444,54.107,76.197,53.18,76.197z"></path></g></svg></g></svg>