<svg xmlns="http://www.w3.org/2000/svg" xmlns:xlink="http://www.w3.org/1999/xlink" width="100" height="100" viewBox="0 0 100 100"><rect width="100%" height="100%" fill="#ff0000"></rect><g transform="translate(50 50) scale(0.69 0.69) rotate(0) translate(-50 -50)" style="fill:#ffffff"><svg fill="#ffffff" xmlns="http://www.w3.org/2000/svg" xmlns:xlink="http://www.w3.org/1999/xlink" version="1.1" x="0px" y="0px" viewBox="0 0 10 10" style="enable-background:new 0 0 10 10;" xml:space="preserve"><g><path d="M5.989,3.898C6.34,4.77,5.896,4.838,5.896,4.838C5.528,4.881,5.57,4.24,5.57,4.24c0.104-1.743-0.803-2.392-0.803-2.392   c0.257,1.486-1.162,2.956-1.162,2.956C2.085,6.831,4.238,8.118,4.238,8.118C4.286,8.13,4.333,8.142,4.38,8.151   C4.194,7.92,3.883,7.362,4.29,6.511l0.717-1.486c0,0,0.086,0.769,0.563,1.414c0,0,0.694,0.82,0.063,1.693   C5.669,8.124,5.69,8.118,5.69,8.118c1.247-0.462,1.247-1.999,1.247-1.999C6.853,4.358,5.989,3.898,5.989,3.898z"></path><path d="M5.025,8.15c0,0-0.835-0.596,0-1.346C5.025,6.805,5.812,7.482,5.025,8.15z"></path></g></svg></g></svg>